<svg width="512" height="512" viewBox="46 70 420 420" xmlns="http://www.w3.org/2000/svg">
  <!-- apcore jellyfish logo - cartoon ocean mascot -->

  <defs>
    <!-- Bell radial gradient: bright center → deep indigo edge -->
    <radialGradient id="bellGrad" cx="50%" cy="45%" r="50%">
      <stop offset="0%" stop-color="#818CF8"/>
      <stop offset="100%" stop-color="#4338CA"/>
    </radialGradient>

    <!-- Bioluminescence glow -->
    <radialGradient id="glowGrad" cx="50%" cy="50%" r="50%">
      <stop offset="0%" stop-color="#67E8F9" stop-opacity="0.4"/>
      <stop offset="100%" stop-color="#67E8F9" stop-opacity="0"/>
    </radialGradient>

    <!-- Tentacle gradients (top solid → bottom fade) -->
    <linearGradient id="tentGrad1" x1="0" y1="0" x2="0" y2="1">
      <stop offset="0%" stop-color="#6366F1"/>
      <stop offset="100%" stop-color="#4F46E5" stop-opacity="0"/>
    </linearGradient>
    <linearGradient id="tentGrad2" x1="0" y1="0" x2="0" y2="1">
      <stop offset="0%" stop-color="#818CF8"/>
      <stop offset="100%" stop-color="#6366F1" stop-opacity="0"/>
    </linearGradient>
  </defs>

  <!-- Tentacles (behind bell) - 6 flowing tentacles -->
  <!-- Outer left tentacle -->
  <path d="M 175,300 C 160,350 145,390 155,430 Q 162,455 150,470"
        stroke="url(#tentGrad1)" stroke-width="8" fill="none" stroke-linecap="round"/>
  <!-- Inner left tentacle -->
  <path d="M 210,310 C 200,360 188,400 195,445 Q 200,465 190,480"
        stroke="url(#tentGrad2)" stroke-width="7" fill="none" stroke-linecap="round"/>
  <!-- Center left tentacle -->
  <path d="M 245,310 C 240,365 235,410 242,455 Q 248,475 240,490"
        stroke="url(#tentGrad1)" stroke-width="6" fill="none" stroke-linecap="round"/>
  <!-- Center right tentacle -->
  <path d="M 267,310 C 272,365 277,410 270,455 Q 264,475 272,490"
        stroke="url(#tentGrad1)" stroke-width="6" fill="none" stroke-linecap="round"/>
  <!-- Inner right tentacle -->
  <path d="M 302,310 C 312,360 324,400 317,445 Q 312,465 322,480"
        stroke="url(#tentGrad2)" stroke-width="7" fill="none" stroke-linecap="round"/>
  <!-- Outer right tentacle -->
  <path d="M 337,300 C 352,350 367,390 357,430 Q 350,455 362,470"
        stroke="url(#tentGrad1)" stroke-width="8" fill="none" stroke-linecap="round"/>

  <!-- Bell (dome body) -->
  <path d="M 130,290 C 130,150 190,80 256,80 C 322,80 382,150 382,290 Q 382,310 256,310 Q 130,310 130,290 Z"
        fill="url(#bellGrad)"/>

  <!-- Bell rim / ruffle -->
  <path d="M 130,290 Q 150,318 175,298 Q 200,318 225,298 Q 250,318 268,298 Q 290,318 312,298 Q 335,318 355,298 Q 375,318 382,290"
        fill="#4338CA" opacity="0.6"/>

  <!-- Bioluminescence glow overlay -->
  <ellipse cx="256" cy="210" rx="100" ry="90" fill="url(#glowGrad)"/>

  <!-- Bell highlight (specular) -->
  <ellipse cx="230" cy="160" rx="55" ry="35" fill="#A5B4FC" opacity="0.3"/>

  <!-- Eyes -->
  <ellipse cx="222" cy="215" rx="22" ry="24" fill="white"/>
  <ellipse cx="290" cy="215" rx="22" ry="24" fill="white"/>
  <!-- Pupils -->
  <circle cx="228" cy="220" r="13" fill="#1E1B4B"/>
  <circle cx="296" cy="220" r="13" fill="#1E1B4B"/>
  <!-- Eye highlights -->
  <circle cx="233" cy="212" r="6" fill="white"/>
  <circle cx="301" cy="212" r="6" fill="white"/>

  <!-- Smile -->
  <path d="M 240,252 Q 256,268 272,252"
        stroke="#312E81" stroke-width="3.5" fill="none" stroke-linecap="round"/>

  <!-- Cheek blush -->
  <ellipse cx="205" cy="242" rx="14" ry="9" fill="#C4B5FD" opacity="0.45"/>
  <ellipse cx="307" cy="242" rx="14" ry="9" fill="#C4B5FD" opacity="0.45"/>
</svg>
